<svg xmlns="http://www.w3.org/2000/svg" id="fast-logo" width="349.473" height="53.744" viewBox="0 0 349.473 53.744"><path id="Path_1" data-name="Path 1" d="M0,0H7.36V31.367H7.5L27.213,14.337H38.1L19.992,29.72,38.867,52.273h-9.35L14.79,34.3h-.14L7.36,40.6V52.273H0Z" fill="#143240"></path><path id="Path_2" data-name="Path 2" d="M16.809,0h7.36V18.532h.139a14.275,14.275,0,0,1,5.586-3.916,19.748,19.748,0,0,1,7.43-1.361q8.1,0,13.086,4.579A15.473,15.473,0,0,1,55.4,29.79V52.278h-7.36V31.018A10.828,10.828,0,0,0,44.9,22.8q-3.107-3.046-8.512-3.043a12.349,12.349,0,0,0-8.827,3.218,10.726,10.726,0,0,0-3.386,8.181V52.278h-7.36V0Z" transform="translate(28.36)" fill="#143240"></path><path id="Path_3" data-name="Path 3" d="M34.327,5.337h7.36V43.279h-7.36Z" transform="translate(57.918 9.005)" fill="#143240"></path><path id="Path_4" data-name="Path 4" d="M40.205,0h7.36V52.278h-7.36Z" transform="translate(67.836)" fill="#143240"></path><path id="Path_5" data-name="Path 5" d="M48.309,35.219a19.989,19.989,0,0,1-2.688-10.246,19.8,19.8,0,0,1,2.688-10.211,19.16,19.16,0,0,1,7.465-7.2A21.721,21.721,0,0,1,66.416,4.934,21.438,21.438,0,0,1,74.684,6.4a20.19,20.19,0,0,1,6.7,4.23,19.048,19.048,0,0,1,4.364,6.435,19.015,19.015,0,0,1,1.536,7.9,19.724,19.724,0,0,1-5.9,14.336,20.162,20.162,0,0,1-6.7,4.265,21.328,21.328,0,0,1-8.268,1.466,21.719,21.719,0,0,1-10.642-2.624,19.081,19.081,0,0,1-7.465-7.2Zm27.847-.454a13.194,13.194,0,0,0,3.77-9.793,12.88,12.88,0,0,0-13.5-13.534,13.077,13.077,0,0,0-9.7,3.776,13.215,13.215,0,0,0-3.736,9.757,13.334,13.334,0,0,0,3.736,9.793,13.18,13.18,0,0,0,9.7,3.741A13.262,13.262,0,0,0,76.156,34.765Z" transform="translate(76.974 8.32)" fill="#143240"></path><path id="Path_6" data-name="Path 6" d="M63.813,6.017h7.151v4.2h.14a14.468,14.468,0,0,1,5.691-3.881,20.459,20.459,0,0,1,7.535-1.4q8.1,0,13.086,4.579a15.477,15.477,0,0,1,4.992,11.963V43.958h-7.36V22.7a10.962,10.962,0,0,0-3.072-8.216,11.276,11.276,0,0,0-8.3-3.043A13.375,13.375,0,0,0,74.6,14.657a10.468,10.468,0,0,0-3.421,8.181V43.958h-7.36V6.017Z" transform="translate(107.667 8.325)" fill="#143240"></path><path id="Path_7" data-name="Path 7" d="M42.256,0H34.2V7.727h8.058Z" transform="translate(57.699)" fill="#143240"></path><path id="Path_8" data-name="Path 8" d="M88.925,15.409H80.564V12.657h8.361V8.194a7.314,7.314,0,0,1,2.019-5.539A8.185,8.185,0,0,1,96.82.723h7.966V3.58h-7.75a5.02,5.02,0,0,0-3.712,1.2A4.978,4.978,0,0,0,92.142,8.4v4.253h14.04v2.752H92.142v36.01H88.925Z" transform="translate(135.93 1.22)" fill="#89b004"></path><path id="Path_9" data-name="Path 9" d="M90.909,34.841a9.056,9.056,0,0,1,3.823-7.931q3.823-2.679,13.289-4.218,6.79-1.108,9.537-2.659A4.724,4.724,0,0,0,120.31,15.8a6.842,6.842,0,0,0-3.2-5.894A14.676,14.676,0,0,0,108.6,7.686,15.3,15.3,0,0,0,99,10.561a11.627,11.627,0,0,0-4.445,7.948l-3.218-.681a14.657,14.657,0,0,1,5.644-9.577,18.652,18.652,0,0,1,11.614-3.5c4.672,0,8.2,1.053,10.949,3.159a10.03,10.03,0,0,1,4.125,8.379v28.33h-3.217V38.471h-.07a12.7,12.7,0,0,1-6,5.289,21.9,21.9,0,0,1-9.432,1.967q-6.607,0-10.322-2.892a9.578,9.578,0,0,1-3.718-8Zm29.546-3.253v-10.9h-.145A7.5,7.5,0,0,1,116.6,23.35a42.627,42.627,0,0,1-7.932,1.949q-7.9,1.327-11.183,3.485A6.855,6.855,0,0,0,94.2,34.841a6.8,6.8,0,0,0,2.892,5.929c1.932,1.356,4.736,2.036,8.431,2.036A17.057,17.057,0,0,0,116.1,39.519Q120.454,36.229,120.455,31.588Z" transform="translate(153.386 8.011)" fill="#89b004"></path><path id="Path_10" data-name="Path 10" d="M106.23,31.156l3.072-.57a12.557,12.557,0,0,0,5.022,9.077q4.337,3.212,11.59,3.218,6.4,0,10.147-2.182t3.754-5.859a6,6,0,0,0-3.289-5.522q-3.289-1.911-11.647-3.124-9.646-1.431-13.452-3.788a7.559,7.559,0,0,1-3.805-6.825,9.13,9.13,0,0,1,4.356-7.826q4.357-3,11.289-3a20.763,20.763,0,0,1,12.09,3.538,12.6,12.6,0,0,1,5.772,8.966l-3.072.5a11.063,11.063,0,0,0-4.824-7.378,17.1,17.1,0,0,0-9.967-2.77,16.747,16.747,0,0,0-9.018,2.182q-3.483,2.182-3.485,5.644a5.4,5.4,0,0,0,3.088,4.963q3.092,1.71,11.27,2.927Q135.053,24.861,139,27.4a8.219,8.219,0,0,1,3.945,7.36,9.244,9.244,0,0,1-4.606,7.983q-4.611,2.985-12.434,2.985-8.4,0-13.756-3.968a14.073,14.073,0,0,1-5.928-10.613Z" transform="translate(179.217 8.019)" fill="#89b004"></path><path id="Path_11" data-name="Path 11" d="M132.557,13.071V42.3a3.969,3.969,0,0,0,.93,3,4.853,4.853,0,0,0,3.289.855H142.7v2.932h-6c-2.6,0-4.482-.535-5.646-1.606s-1.749-2.8-1.749-5.178V13.077h-8.113V10.324h8.113V2.109h3.252v8.216h12.434v2.752H132.557Z" transform="translate(204.482 3.558)" fill="#89b004"></path></svg>