<svg xmlns="http://www.w3.org/2000/svg" width="1440" height="503" viewBox="0 0 1440 503" fill="none"><mask id="mask0_107_2916" style="mask-type:alpha" maskUnits="userSpaceOnUse" x="-1" y="0" width="1441" height="503"><path d="M-0.000976562 32.9951C-0.000976562 15.322 14.3259 0.995117 31.999 0.995117H1408C1425.67 0.995117 1440 15.322 1440 32.9951V502.995H-0.000976562V32.9951Z" fill="#143240"></path></mask><g mask="url(#mask0_107_2916)"><g style="mix-blend-mode:overlay" opacity="0.3"><path d="M507.911 -11.9511C507.521 -5.09113 505.98 0.792106 476.845 1.36187C448.271 1.90884 408.608 -28.0444 406.977 -61.9112C404.684 -95.4882 438.2 -97.9398 468.567 -72.7563C500.472 -47.6183 508.992 -19.3547 507.911 -11.9478V-11.9511Z" fill="url(#paint0_linear_107_2916)"></path><path d="M171.608 127.237C174.041 180.308 134.996 227.621 88.2084 239.422C40.7735 251.413 1.32414 211.648 -4.47744 146.819C-10.581 82.5148 18.9977 26.5264 70.1498 26.6389C121.139 26.7778 169.261 74.3978 171.608 127.237Z" fill="url(#paint1_linear_107_2916)"></path><path d="M389.073 84.4777C386.908 117.701 347.136 157.911 295.869 178.221C245.008 198.694 197.406 177.621 194.603 123.417C191.719 69.3094 239.787 21.1206 296.225 21.5784C352.816 21.9201 391.312 51.7723 389.07 84.4744L389.073 84.4777Z" fill="url(#paint2_linear_107_2916)"></path><path d="M507.911 27.6994C508.992 35.3117 500.468 64.3621 468.567 90.1937C438.203 116.082 404.69 113.552 406.976 79.0446C408.608 44.2423 448.287 13.4452 476.845 14.0174C505.974 14.6063 507.521 20.6392 507.911 27.6994V27.6994Z" fill="url(#paint3_linear_107_2916)"></path><path d="M31.6297 367.704C49.3382 403.312 39.7634 436.852 2.60466 468.21C-37.1915 501.273 -67.2147 471.548 -63.0338 403.239C-60.0791 337.965 -63.0272 292.285 -44.9155 292.122C-25.8684 291.845 14.212 331.339 31.633 367.704H31.6297Z" fill="url(#paint4_linear_107_2916)"></path><path d="M195.633 293.013C202.566 313.026 182.691 328.489 148.309 357.214C112.979 387.032 64.2756 400.36 46.7484 362.277C29.0049 325.881 48.4136 276.423 94.8064 265.302C141.655 253.402 188.392 273.885 195.633 293.013Z" fill="url(#paint5_linear_107_2916)"></path><path d="M373.165 189.105C366.594 201.836 330.571 218.806 295.714 245.726C261.411 273.358 224.408 303.244 215.847 282.856C207.516 262.805 245.908 215.378 296.775 196.099C347.48 176.067 379.651 178.043 373.165 189.105Z" fill="url(#paint6_linear_107_2916)"></path><path d="M507.835 67.0174C510.392 77.5544 480.349 108.644 442.139 134.997C406.085 161.78 384.256 189.901 390.095 178.12C395.857 165.434 435.877 124.329 466.618 99.2572C496.631 73.9334 506.049 58.2725 507.835 67.0174Z" fill="url(#paint7_linear_107_2916)"></path></g></g><defs><linearGradient id="paint0_linear_107_2916" x1="497.435" y1="-71.6062" x2="415.719" y2="-27.6021" gradientUnits="userSpaceOnUse"><stop stop-color="white"></stop><stop offset="1" stop-color="white" stop-opacity="0"></stop></linearGradient><linearGradient id="paint1_linear_107_2916" x1="153.228" y1="69.2461" x2="-5.89503" y2="132.756" gradientUnits="userSpaceOnUse"><stop stop-color="white"></stop><stop offset="1" stop-color="white" stop-opacity="0"></stop></linearGradient><linearGradient id="paint2_linear_107_2916" x1="368.827" y1="54.1573" x2="216.213" y2="141.777" gradientUnits="userSpaceOnUse"><stop stop-color="white"></stop><stop offset="1" stop-color="white" stop-opacity="0"></stop></linearGradient><linearGradient id="paint3_linear_107_2916" x1="497.435" y1="32.5563" x2="414.728" y2="75.8905" gradientUnits="userSpaceOnUse"><stop stop-color="white"></stop><stop offset="1" stop-color="white" stop-opacity="0"></stop></linearGradient><linearGradient id="paint4_linear_107_2916" x1="29.4114" y1="329.715" x2="-71.5492" y2="356.464" gradientUnits="userSpaceOnUse"><stop stop-color="white"></stop><stop offset="1" stop-color="white" stop-opacity="0"></stop></linearGradient><linearGradient id="paint5_linear_107_2916" x1="180.631" y1="286.337" x2="61.8932" y2="359.151" gradientUnits="userSpaceOnUse"><stop stop-color="white"></stop><stop offset="1" stop-color="white" stop-opacity="0"></stop></linearGradient><linearGradient id="paint6_linear_107_2916" x1="357.355" y1="202.42" x2="246.981" y2="280.793" gradientUnits="userSpaceOnUse"><stop stop-color="white"></stop><stop offset="1" stop-color="white" stop-opacity="0"></stop></linearGradient><linearGradient id="paint7_linear_107_2916" x1="495.574" y1="87.6329" x2="396.105" y2="136.888" gradientUnits="userSpaceOnUse"><stop stop-color="white"></stop><stop offset="1" stop-color="white" stop-opacity="0"></stop></linearGradient></defs></svg>